<?xml version="1.0" encoding="UTF-8"?>
<svg width="16px" height="16px" viewBox="0 0 16 16" version="1.1" xmlns="http://www.w3.org/2000/svg" xmlns:xlink="http://www.w3.org/1999/xlink">
    <!-- Generator: Sketch 52.6 (67491) - http://www.bohemiancoding.com/sketch -->
    <title>twitter_dark</title>
    <desc>Created with Sketch.</desc>
    <g id="twitter_dark" stroke="none" stroke-width="1" fill="none" fill-rule="evenodd">
        <path d="M16,3.42066667 C15.4480563,3.66133333 14.8548016,3.82466667 14.2324258,3.898 C14.867669,3.52266667 15.3559529,2.92933333 15.5855343,2.222 C14.9909251,2.56866667 14.3326561,2.82066667 13.6317215,2.95666667 C13.0702966,2.368 12.2704863,2 11.3853447,2 C9.6854937,2 8.30732764,3.35666667 8.30732764,5.02933333 C8.30732764,5.26666667 8.33509414,5.498 8.38724096,5.72 C5.8300149,5.59333333 3.56196668,4.38733333 2.04429094,2.55466667 C1.77949343,3.002 1.62779358,3.52266667 1.62779358,4.07733333 C1.62779358,5.12866667 2.17093322,6.056 2.9964784,6.59933333 C2.49194095,6.58333333 2.01787891,6.44733333 1.60273602,6.22 L1.60273602,6.25866667 C1.60273602,7.726 2.66328051,8.95066667 4.07124475,9.22866667 C3.81254233,9.298 3.5409725,9.33533333 3.26059867,9.33533333 C3.06216985,9.33533333 2.86915888,9.316 2.68156576,9.28066667 C3.07300555,10.484 4.20939997,11.36 5.55641338,11.3846667 C4.5026412,12.1973333 3.17594474,12.6813333 1.73411892,12.6813333 C1.48557497,12.6813333 1.24109441,12.6673333 1,12.6393333 C2.3619125,13.4986667 3.9798185,14 5.71759447,14 C11.3778952,14 14.4735202,9.384 14.4735202,5.38066667 C14.4735202,5.24933333 14.4701341,5.11866667 14.4647162,4.98866667 C15.0654206,4.562 15.587566,4.028 16,3.42066667" fill="#3B3D40"></path>
    </g>
</svg>